<svg width="148" height="34" viewBox="0 0 148 34" fill="none" xmlns="http://www.w3.org/2000/svg">
<path d="M32.0023 0.0872765L2.34164 0C1.12745 0 0.130091 1.00368 0.0867272 2.22555L0 29.8922C0 30.6777 0.607091 31.3759 1.431 31.3759C1.908 31.3759 2.34163 31.1577 2.60182 30.8086L8.54263 23.3028L31.8723 23.3901C33.0864 23.3901 34.0838 22.3864 34.1272 21.1646L34.2139 2.35647C34.2139 1.1346 33.2165 0.130915 32.0023 0.0872765Z" fill="#1F64FF"/>
<path d="M40.545 9.07666H35.775L35.7316 22.0372C35.7316 23.7391 34.344 25.1355 32.6528 25.1355L15.8711 25.0919V25.2665C15.8711 26.2265 16.6516 27.012 17.6056 27.012L35.6449 27.0556L40.1981 32.9032C40.5884 33.3832 41.2822 33.4705 41.7592 33.0777C42.0194 32.8595 42.1928 32.5541 42.1928 32.2049L42.2795 10.7786C42.2362 9.86215 41.4556 9.07666 40.545 9.07666Z" fill="#1F64FF"/>
<path d="M56.5028 24.3502L56.4595 33.2524H50.9089L50.9957 9.16406L58.8011 9.2077C60.2755 9.16406 61.7932 9.38225 63.2242 9.775C64.3083 10.0805 65.3057 10.6041 66.2163 11.3023C66.9535 11.9133 67.5172 12.6988 67.8641 13.5715C68.211 14.4879 68.3845 15.448 68.3845 16.408C68.3845 17.1499 68.2977 17.8917 68.0809 18.6336C67.8641 19.3318 67.5606 19.9864 67.1269 20.5537C66.6933 21.1646 66.1729 21.6882 65.6092 22.1246C64.9587 22.6047 64.2649 22.9974 63.5277 23.2592C63.918 23.4338 64.2649 23.6956 64.5685 23.9574C64.9154 24.2629 65.1756 24.5684 65.4357 24.9611L70.5093 33.3397H65.4791C64.6552 33.3833 63.8747 32.9906 63.4844 32.2923L59.5383 25.3102C59.4082 25.0484 59.1914 24.7866 58.9312 24.6557C58.6277 24.5247 58.2808 24.4375 57.9338 24.4375L56.5028 24.3502ZM56.5028 20.51H58.7144C59.3648 20.51 60.0153 20.4227 60.6657 20.2045C61.1427 20.03 61.5764 19.7682 61.9667 19.4191C62.3136 19.07 62.5738 18.6772 62.7038 18.2408C62.8773 17.7608 62.964 17.2808 62.9207 16.7571C62.964 15.7971 62.6171 14.9243 61.8799 14.2697C61.1861 13.6588 60.1454 13.3533 58.7144 13.3533H56.5028V20.51Z" fill="white"/>
<path d="M84.5591 33.3398C84.1688 33.3835 83.8219 33.2962 83.475 33.1216C83.1715 32.9034 82.9546 32.6416 82.8679 32.2925L82.521 31.3325C82.0874 31.6816 81.6971 32.0307 81.3068 32.2925C80.9166 32.5543 80.5263 32.8162 80.0926 32.9907C79.659 33.2089 79.2254 33.3398 78.7484 33.4271C78.228 33.5144 77.7076 33.558 77.1439 33.558C76.4067 33.558 75.7129 33.4707 75.0191 33.2525C74.412 33.078 73.8916 32.7725 73.4147 32.3361C72.981 31.9434 72.6341 31.4197 72.3739 30.8524C72.1137 30.1979 71.9837 29.4997 72.027 28.8014C72.027 28.1469 72.2005 27.4923 72.504 26.925C72.8943 26.2268 73.4146 25.6158 74.1085 25.1795C75.0625 24.5685 76.1032 24.1321 77.1873 23.8703C78.7917 23.4776 80.3962 23.303 82.044 23.3467V22.6048C82.044 21.6011 81.8272 20.8593 81.4369 20.4229C81.0033 19.9429 80.3528 19.7247 79.7024 19.7247C79.182 19.7247 78.705 19.7683 78.228 19.8992C77.8811 20.0301 77.5342 20.1611 77.1873 20.3356C76.8837 20.5102 76.5802 20.6411 76.32 20.772C76.0165 20.9029 75.6696 20.9902 75.3226 20.9466C75.0191 20.9466 74.6722 20.8593 74.412 20.6847C74.1518 20.5102 73.9784 20.292 73.8483 20.0302L72.9376 18.4155C73.935 17.5428 75.1058 16.8446 76.3634 16.3645C77.6643 15.9282 79.0086 15.71 80.3962 15.71C81.3502 15.71 82.3042 15.8845 83.1715 16.2336C83.952 16.5391 84.6892 17.0191 85.2529 17.63C85.8166 18.241 86.2936 18.9828 86.5538 19.7683C86.8574 20.6411 86.9875 21.5575 86.9875 22.4739L86.9441 33.1653L84.5591 33.3398ZM78.705 30.1979C79.3121 30.1979 79.8758 30.1106 80.4396 29.8488C81.0033 29.5869 81.5236 29.1942 81.9573 28.7142V26.3577C81.1334 26.3577 80.2661 26.4013 79.4422 26.5323C78.9218 26.6195 78.3581 26.7941 77.8811 27.0123C77.5342 27.1432 77.274 27.405 77.1006 27.7105C76.9705 27.9723 76.8837 28.2341 76.8837 28.5396C76.8404 29.0196 77.0138 29.456 77.3607 29.7615C77.7076 30.1106 78.228 30.2415 78.705 30.1979Z" fill="white"/>
<path d="M96.4407 33.6887C95.7035 33.6887 94.9663 33.5578 94.3159 33.3396C93.7088 33.1214 93.1884 32.7723 92.7548 32.3359C92.3212 31.8995 92.0176 31.3322 91.8008 30.7649C91.584 30.1103 91.4539 29.4121 91.4972 28.7139L91.5406 19.8553H90.1096C89.8494 19.8553 89.6326 19.7681 89.4158 19.5935C89.199 19.3753 89.1123 19.1135 89.1556 18.8517V16.8443L91.8875 16.3206L92.8849 12.1314C93.015 11.6077 93.492 11.2586 94.0123 11.3459H96.6575V16.3643H100.777V19.8553H96.6575L96.6142 28.3648C96.6142 28.7139 96.7009 29.063 96.9177 29.3685C97.0912 29.6303 97.4381 29.7612 97.7416 29.7612C97.9151 29.7612 98.0451 29.7612 98.2186 29.7176C98.3487 29.674 98.4354 29.6303 98.5655 29.5867L98.8257 29.4558C98.9124 29.4121 98.9992 29.4121 99.1292 29.4121C99.2593 29.4121 99.3894 29.4558 99.5195 29.4994C99.6496 29.5867 99.7363 29.7176 99.8231 29.8485L101.341 32.2923C100.69 32.7723 99.9098 33.165 99.1292 33.3832C98.2186 33.5578 97.3513 33.6887 96.4407 33.6887Z" fill="white"/>
<path d="M110.968 16.0589C112.008 16.0589 113.092 16.2335 114.046 16.5826C114.957 16.9317 115.781 17.4554 116.431 18.1099C117.125 18.8082 117.646 19.6373 117.992 20.5973C118.383 21.6446 118.556 22.7792 118.556 23.9138C118.556 24.2193 118.556 24.5248 118.513 24.8739C118.513 25.0921 118.426 25.2666 118.339 25.4412C118.253 25.5721 118.123 25.703 117.992 25.7466C117.819 25.7903 117.602 25.8339 117.429 25.8339L107.585 25.7903C107.759 27.2303 108.192 28.2777 108.886 28.8886C109.623 29.5432 110.577 29.8923 111.575 29.8486C112.095 29.8486 112.615 29.805 113.092 29.6304C113.483 29.4995 113.873 29.325 114.22 29.1504L115.13 28.6704C115.391 28.5395 115.694 28.4522 115.998 28.4522C116.345 28.4086 116.692 28.5831 116.908 28.8886L118.383 30.7214C117.906 31.2887 117.299 31.8124 116.692 32.2487C116.084 32.5978 115.477 32.9033 114.827 33.1215C114.22 33.3397 113.569 33.4706 112.919 33.5579C112.312 33.6452 111.705 33.6888 111.098 33.6888C109.97 33.6888 108.799 33.4706 107.759 33.0779C106.718 32.6851 105.807 32.1178 105.027 31.3323C104.203 30.5032 103.596 29.5432 103.205 28.4522C102.728 27.1867 102.512 25.8339 102.555 24.4375C102.555 23.3465 102.772 22.2119 103.162 21.1646C103.943 19.1136 105.504 17.499 107.498 16.6699C108.583 16.2771 109.753 16.0153 110.968 16.0589ZM111.054 19.5936C110.23 19.55 109.363 19.8555 108.756 20.4228C108.149 21.0773 107.759 21.9501 107.672 22.8229H114.046C114.046 22.4301 114.003 22.0374 113.916 21.6446C113.83 21.2519 113.656 20.9028 113.396 20.5973C113.136 20.2919 112.832 20.03 112.485 19.8555C112.008 19.6809 111.531 19.5936 111.054 19.5936Z" fill="white"/>
<path d="M133.777 11.6953C133.777 12.088 133.69 12.4808 133.517 12.8299C133.343 13.179 133.126 13.4845 132.823 13.7899C132.519 14.0518 132.216 14.27 131.825 14.4445C131.435 14.6191 131.045 14.6627 130.611 14.6627C130.221 14.6627 129.831 14.5754 129.44 14.4009C129.094 14.2263 128.747 14.0081 128.486 13.7463C128.226 13.4845 128.009 13.179 127.836 12.7863C127.663 12.4372 127.576 12.0444 127.619 11.6517C127.619 11.2589 127.706 10.8662 127.879 10.4734C128.053 10.1243 128.27 9.77522 128.53 9.51339C128.79 9.25156 129.137 9.03337 129.484 8.85882C129.831 8.68426 130.264 8.64062 130.655 8.64062C131.479 8.64062 132.259 8.94609 132.866 9.51339C133.126 9.77522 133.387 10.1243 133.517 10.4734C133.69 10.9098 133.777 11.3026 133.777 11.6953ZM133.17 16.4082L133.126 33.5581H128.053L128.096 16.4082H133.17Z" fill="white"/>
<path d="M143.187 33.8195C142.45 33.8195 141.712 33.6886 141.062 33.4704C139.891 33.034 138.937 32.074 138.547 30.8958C138.33 30.2412 138.2 29.543 138.243 28.8448L138.287 19.9862H136.856C136.335 19.9862 135.902 19.5935 135.902 19.1134C135.902 19.0698 135.902 19.0262 135.902 18.9825V16.9752L138.59 16.4515L139.631 12.2622C139.761 11.7386 140.238 11.3895 140.758 11.4767H143.404V16.4951H147.523V19.9862H143.404L143.36 28.4957C143.36 28.8448 143.447 29.1939 143.62 29.4993C143.794 29.7612 144.141 29.8921 144.444 29.8921C144.574 29.8921 144.748 29.8921 144.878 29.8485C145.008 29.8048 145.095 29.7612 145.225 29.7175C145.312 29.6739 145.398 29.6303 145.485 29.5866C145.572 29.543 145.658 29.543 145.789 29.543C145.919 29.543 146.049 29.5866 146.179 29.6303C146.309 29.7175 146.396 29.8485 146.482 29.9794L148 32.4231C147.35 32.9031 146.612 33.2959 145.789 33.5141C144.878 33.7323 144.054 33.8632 143.187 33.8195Z" fill="white"/>
<path d="M21.0314 13.3096L23.8067 11.0404C24.0235 10.8222 24.0668 10.4731 23.85 10.2549C23.7633 10.124 23.6332 10.0803 23.4597 10.0803L19.9039 9.86215C19.6871 9.86215 19.5137 9.73123 19.4269 9.51304L18.126 6.15289C17.9959 5.84743 17.6924 5.71651 17.3888 5.84742C17.2588 5.89106 17.1287 6.02198 17.0853 6.15289L15.7844 9.51304C15.6977 9.73123 15.5242 9.86215 15.3074 9.86215L11.7082 10.0367C11.4047 10.0367 11.1445 10.2985 11.1879 10.604C11.1879 10.7785 11.2746 10.9095 11.4047 10.9967L14.1799 13.2659C14.3534 13.3968 14.3968 13.615 14.3534 13.8332L13.4428 17.3243C13.356 17.6298 13.5728 17.9352 13.8764 17.9789C14.0065 18.0225 14.1799 17.9789 14.31 17.8916L17.3021 15.9715C17.4756 15.8406 17.6924 15.8406 17.9092 15.9715L20.9013 17.9352C21.1615 18.1098 21.5084 18.0225 21.6818 17.7607C21.7686 17.6298 21.7686 17.4988 21.7686 17.3243L20.9013 13.8332C20.8146 13.615 20.8579 13.4405 21.0314 13.3096Z" fill="white"/>
</svg>
