<svg width="189" height="215" viewBox="0 0 189 215" fill="none" xmlns="http://www.w3.org/2000/svg">
<path d="M10.8403 196L10.773 212.961H0L0.168325 167.105L15.3178 167.155C18.2179 167.112 21.11 167.467 23.911 168.21C26.0191 168.769 27.9894 169.747 29.7014 171.083C31.1219 172.237 32.2248 173.725 32.9081 175.411C33.5949 177.134 33.9351 178.974 33.9096 180.826C33.913 182.252 33.7031 183.671 33.2868 185.037C32.8896 186.347 32.2784 187.584 31.4773 188.7C30.6531 189.839 29.6601 190.85 28.5316 191.698C27.308 192.606 25.9552 193.331 24.5169 193.849C25.2404 194.213 25.9183 194.659 26.5369 195.178C27.1834 195.731 27.7373 196.381 28.1781 197.105L38 213.093H28.2454C27.4697 213.151 26.6933 212.991 26.0054 212.633C25.3175 212.274 24.7462 211.732 24.357 211.067L16.6981 197.736C16.4254 197.215 16.0118 196.778 15.503 196.474C14.9041 196.186 14.2406 196.055 13.5756 196.092L10.8403 196ZM10.8403 188.675H15.1747C16.4452 188.706 17.7118 188.524 18.92 188.135C19.8647 187.822 20.7271 187.305 21.445 186.623C22.1004 185.988 22.5936 185.208 22.8842 184.348C23.1917 183.44 23.348 182.489 23.3471 181.532C23.3973 180.648 23.2457 179.765 22.9033 178.947C22.561 178.129 22.0367 177.397 21.3692 176.806C20.0506 175.665 17.997 175.092 15.2084 175.087H10.874L10.8403 188.675Z" fill="#000022"/>
<path d="M63.5576 212.619C62.8545 212.662 62.1518 212.53 61.5087 212.234C60.9593 211.857 60.5541 211.296 60.3623 210.645L59.6874 208.839C58.8744 209.533 58.1182 210.144 57.3783 210.67C56.6519 211.187 55.8818 211.634 55.0774 212.009C54.2684 212.386 53.4199 212.667 52.5487 212.845C51.5669 213.027 50.5706 213.114 49.5729 213.104C48.2282 213.113 46.8901 212.91 45.6052 212.502C44.4887 212.145 43.4581 211.549 42.5806 210.754C41.7339 209.97 41.0768 208.993 40.6618 207.902C40.194 206.652 39.9702 205.319 40.0032 203.98C40.0216 202.722 40.3221 201.485 40.8813 200.367C41.5822 199.002 42.6162 197.85 43.8815 197.021C45.6486 195.867 47.5878 195.02 49.6217 194.512C52.5944 193.778 55.6475 193.447 58.7036 193.525V192.128C58.7036 190.188 58.3242 188.794 57.5653 187.947C57.1461 187.502 56.6386 187.155 56.0774 186.93C55.5162 186.705 54.9144 186.606 54.3131 186.642C53.3756 186.608 52.439 186.732 51.5405 187.01C50.8768 187.233 50.2322 187.513 49.6136 187.846C49.0444 188.164 48.4997 188.448 47.9875 188.683C47.3846 188.948 46.7322 189.074 46.0767 189.051C45.4822 189.069 44.897 188.896 44.4018 188.557C43.948 188.243 43.5743 187.821 43.3123 187.328L41.5968 184.25C43.4794 182.543 45.6625 181.223 48.0281 180.361C50.4636 179.503 53.0235 179.079 55.5977 179.106C57.3803 179.089 59.1495 179.424 60.8094 180.093C62.2933 180.699 63.6348 181.623 64.7447 182.803C65.8263 183.986 66.657 185.387 67.1838 186.918C67.7572 188.584 68.0327 190.344 67.9969 192.112L67.9237 212.636L63.5576 212.619ZM52.6138 206.597C53.7311 206.626 54.841 206.403 55.866 205.945C56.921 205.407 57.8737 204.679 58.6792 203.796V199.296C57.0995 199.266 55.5206 199.389 53.9635 199.664C52.9501 199.843 51.9654 200.164 51.0364 200.617C50.4255 200.894 49.9057 201.347 49.5404 201.922C49.2594 202.401 49.113 202.952 49.1176 203.511C49.0693 203.952 49.1245 204.399 49.2787 204.814C49.4329 205.229 49.6816 205.599 50.0038 205.895C50.7792 206.408 51.6933 206.654 52.6138 206.597Z" fill="#000022"/>
<path d="M87.303 214.104C85.9819 214.125 84.6682 213.889 83.4263 213.408C82.3605 212.994 81.3958 212.33 80.6033 211.465C79.8228 210.601 79.2296 209.566 78.8655 208.432C78.4615 207.153 78.2648 205.81 78.2836 204.46L78.3465 187.452H75.7201C75.2694 187.46 74.8332 187.283 74.5013 186.958C74.3253 186.769 74.1899 186.541 74.1044 186.291C74.0189 186.041 73.9853 185.774 74.0059 185.508V181.654L78.9284 180.657L80.7685 172.639C80.8653 172.161 81.128 171.739 81.5041 171.458C81.8802 171.176 82.342 171.057 82.7972 171.123H87.6254V180.741H95.1272V187.444H87.6254L87.5704 203.79C87.5394 204.464 87.7192 205.13 88.0815 205.683C88.2552 205.929 88.4831 206.126 88.745 206.256C89.0069 206.386 89.2949 206.446 89.5834 206.429C89.87 206.437 90.1561 206.401 90.4327 206.32C90.6403 206.261 90.8408 206.177 91.0303 206.069L91.51 205.818C91.6744 205.745 91.8508 205.707 92.0289 205.709C92.2673 205.698 92.5022 205.772 92.6973 205.918C92.9022 206.105 93.0774 206.325 93.2163 206.572L96 211.247C94.7864 212.204 93.4233 212.924 91.9739 213.375C90.4595 213.863 88.8853 214.109 87.303 214.104Z" fill="#000022"/>
<path d="M115.283 180.107C117.319 180.089 119.342 180.436 121.256 181.132C122.997 181.782 124.58 182.798 125.898 184.113C127.232 185.466 128.264 187.089 128.926 188.873C129.675 190.915 130.038 193.079 129.997 195.255C129.996 195.861 129.963 196.466 129.896 197.068C129.855 197.459 129.732 197.836 129.537 198.177C129.383 198.439 129.144 198.641 128.859 198.748C128.506 198.863 128.135 198.914 127.763 198.899L108.817 198.832C109.13 201.591 109.966 203.592 111.327 204.835C112.759 206.116 114.63 206.79 116.546 206.716C117.543 206.745 118.538 206.609 119.491 206.313C120.251 206.07 120.989 205.764 121.699 205.398L123.472 204.482C123.99 204.217 124.564 204.079 125.145 204.079C125.488 204.056 125.83 204.121 126.141 204.268C126.451 204.415 126.719 204.639 126.919 204.919L129.754 208.454C128.809 209.582 127.701 210.561 126.467 211.359C125.328 212.057 124.113 212.62 122.845 213.038C121.641 213.441 120.399 213.723 119.139 213.878C117.966 214.034 116.784 214.109 115.601 214.105C113.392 214.115 111.199 213.725 109.127 212.954C107.15 212.224 105.351 211.079 103.849 209.596C102.288 208.021 101.077 206.132 100.294 204.054C99.3817 201.593 98.9445 198.98 99.0056 196.355C99.0027 194.214 99.3911 192.091 100.152 190.091C100.883 188.148 102.002 186.376 103.441 184.883C104.879 183.39 106.606 182.208 108.516 181.409C110.658 180.511 112.962 180.067 115.283 180.107ZM115.451 186.917C114.647 186.863 113.84 186.976 113.082 187.249C112.323 187.522 111.629 187.949 111.042 188.504C109.877 189.788 109.14 191.406 108.935 193.13L121.197 193.172C121.197 192.399 121.099 191.629 120.904 190.88C120.712 190.158 120.38 189.482 119.926 188.89C119.45 188.284 118.84 187.798 118.144 187.471C117.301 187.08 116.379 186.89 115.451 186.917Z" fill="#000022"/>
<path d="M157.998 171.81C158.004 172.56 157.85 173.303 157.546 173.981C157.253 174.652 156.841 175.258 156.331 175.763C155.817 176.271 155.224 176.682 154.579 176.977C153.889 177.276 153.151 177.427 152.406 177.423C151.685 177.422 150.972 177.265 150.311 176.96C149.674 176.659 149.092 176.243 148.59 175.73C148.094 175.223 147.697 174.617 147.421 173.948C147.132 173.263 146.988 172.519 147.001 171.768C146.996 171.007 147.145 170.253 147.437 169.556C147.713 168.873 148.115 168.256 148.621 167.74C149.123 167.23 149.709 166.822 150.35 166.535C151.011 166.237 151.726 166.09 152.445 166.106C153.912 166.097 155.327 166.689 156.393 167.757C156.899 168.275 157.306 168.892 157.593 169.573C157.882 170.278 158.02 171.042 157.998 171.81ZM156.915 180.691L156.806 213.105H147.663L147.772 180.683L156.915 180.691Z" fill="#000022"/>
<path d="M176.558 214.103C175.11 214.129 173.67 213.893 172.31 213.408C171.147 212.998 170.095 212.336 169.232 211.473C168.37 210.609 167.72 209.566 167.331 208.422C166.884 207.144 166.669 205.799 166.695 204.449L166.755 187.438H163.891C163.632 187.448 163.373 187.403 163.133 187.307C162.892 187.211 162.676 187.067 162.497 186.882C162.319 186.698 162.183 186.479 162.099 186.24C162.014 186 161.984 185.746 162.008 185.494V181.656L167.383 180.659L169.404 172.639C169.509 172.161 169.797 171.739 170.208 171.458C170.619 171.176 171.124 171.057 171.622 171.123H176.893V180.743H185.097V187.447H176.885L176.825 203.787C176.8 204.461 176.995 205.124 177.384 205.681C177.574 205.927 177.823 206.124 178.109 206.254C178.396 206.384 178.711 206.444 179.026 206.427C179.323 206.445 179.621 206.422 179.912 206.36C180.137 206.295 180.356 206.211 180.565 206.109C180.736 206.016 180.911 205.932 181.09 205.857C181.267 205.776 181.462 205.739 181.657 205.748C181.917 205.734 182.174 205.805 182.388 205.949C182.614 206.134 182.806 206.355 182.956 206.603L186 211.279C184.686 212.237 183.206 212.958 181.632 213.408C179.985 213.882 178.275 214.117 176.558 214.103Z" fill="#000022"/>
<path d="M143.076 0.590374L10.4471 0.10498C7.81016 0.109967 5.28147 1.15441 3.40959 3.01175C1.53771 4.8691 0.473579 7.38956 0.448032 10.0264L0.00147004 133.18C-0.0276868 134.55 0.377532 135.893 1.15903 137.018C1.94052 138.143 3.05815 138.992 4.35168 139.442C5.6452 139.893 7.04818 139.922 8.35945 139.526C9.67073 139.131 10.8229 138.33 11.6509 137.238L38.1728 103.766L142.688 104.154C145.325 104.149 147.853 103.104 149.725 101.247C151.597 99.3898 152.661 96.8693 152.687 94.2325L152.978 10.5701C152.978 7.93669 151.937 5.41001 150.083 3.54067C148.228 1.67134 145.709 0.610867 143.076 0.590374Z" fill="#1F64FF"/>
<path d="M181.324 40.5286H159.967L159.792 98.2127C159.777 101.874 158.311 105.38 155.717 107.964C153.122 110.547 149.61 111.998 145.949 111.998L70.7515 111.726V112.58C70.7513 114.623 71.5562 116.584 72.9917 118.038C74.4273 119.492 76.3778 120.321 78.4207 120.347L159.21 120.599L179.693 146.655C180.335 147.473 181.216 148.072 182.213 148.367C183.21 148.662 184.275 148.639 185.259 148.302C186.243 147.965 187.097 147.33 187.704 146.485C188.31 145.64 188.639 144.627 188.644 143.587L188.993 48.2754C188.988 46.2358 188.181 44.2799 186.746 42.8304C185.311 41.3809 183.364 40.5541 181.324 40.5286Z" fill="#1F64FF"/>
<path d="M94.0313 59.2259L106.419 49.0908C106.789 48.7733 107.056 48.3531 107.187 47.8836C107.319 47.414 107.308 46.916 107.156 46.4526C107.004 45.9892 106.719 45.5812 106.335 45.2801C105.952 44.979 105.487 44.7984 105.001 44.7611L89.0803 43.7321C88.6081 43.7043 88.1538 43.5413 87.7717 43.2624C87.3895 42.9836 87.0957 42.6007 86.9252 42.1594L81.1004 27.1899C80.9203 26.7206 80.6022 26.317 80.1879 26.0323C79.7737 25.7476 79.2829 25.5952 78.7803 25.5952C78.2776 25.5952 77.7868 25.7476 77.3726 26.0323C76.9584 26.317 76.6402 26.7206 76.4601 27.1899L70.6354 42.0624C70.4546 42.4988 70.1549 42.8758 69.7705 43.1504C69.3861 43.425 68.9323 43.5862 68.4608 43.6156L52.4234 44.4311C51.9239 44.4551 51.4433 44.6293 51.0444 44.9309C50.6455 45.2324 50.3469 45.6473 50.1875 46.1213C50.0281 46.5952 50.0154 47.1063 50.151 47.5876C50.2867 48.0689 50.5644 48.498 50.9478 48.819L63.2768 58.9929C63.6282 59.3044 63.888 59.7058 64.0283 60.154C64.1686 60.6021 64.184 61.0801 64.0728 61.5363L59.9761 77.0689C59.8633 77.5529 59.8981 78.0595 60.0762 78.5235C60.2542 78.9874 60.5672 79.3873 60.9748 79.6716C61.3824 79.9559 61.8658 80.1114 62.3627 80.1182C62.8595 80.1249 63.347 79.9826 63.7622 79.7095L77.2367 71.1471C77.6262 70.8825 78.0861 70.741 78.557 70.741C79.0278 70.741 79.4878 70.8825 79.8773 71.1471L93.3518 79.826C93.7695 80.0845 94.2545 80.2135 94.7454 80.1965C95.2364 80.1796 95.7113 80.0175 96.1102 79.7308C96.5091 79.4441 96.8141 79.0456 96.9866 78.5856C97.1592 78.1257 97.1915 77.6249 97.0796 77.1466L93.1965 61.614C93.1111 61.1777 93.1435 60.7265 93.2902 60.3068C93.4369 59.8871 93.6927 59.514 94.0313 59.2259Z" fill="white"/>
</svg>
