<svg width="110" height="25" viewBox="0 0 110 25" fill="none" xmlns="http://www.w3.org/2000/svg">
<g clip-path="url(#clip0_118_12)">
<path d="M23.7642 0.0806036L1.73454 0C1.29654 0.000828078 0.876521 0.174266 0.565601 0.482694C0.254681 0.791121 0.0779292 1.20966 0.0736857 1.64754L-0.000488248 22.0983C-0.00533121 22.3257 0.0619757 22.5488 0.191782 22.7356C0.321588 22.9224 0.507227 23.0633 0.722081 23.1381C0.936936 23.2129 1.16997 23.2178 1.38777 23.1521C1.60558 23.0863 1.79696 22.9533 1.93448 22.7721L6.33977 17.2137L23.6997 17.2782C24.1377 17.2773 24.5577 17.1039 24.8686 16.7955C25.1796 16.4871 25.3563 16.0685 25.3606 15.6306L25.4089 1.73781C25.4089 1.30052 25.2361 0.880944 24.928 0.570525C24.6199 0.260106 24.2016 0.0840066 23.7642 0.0806036V0.0806036Z" fill="#1F64FF"/>
<path d="M30.1178 6.71265H26.5704L26.5414 16.2916C26.5388 16.8996 26.2954 17.4818 25.8645 17.9108C25.4335 18.3399 24.8501 18.5807 24.242 18.5807L11.7517 18.5356V18.6774C11.7517 19.0167 11.8854 19.3423 12.1238 19.5837C12.3623 19.8251 12.6862 19.9629 13.0256 19.9671L26.4446 20.009L29.8469 24.3358C29.9536 24.4717 30.0998 24.571 30.2655 24.6201C30.4311 24.6691 30.6079 24.6653 30.7714 24.6093C30.9348 24.5533 31.0767 24.4479 31.1775 24.3076C31.2782 24.1673 31.3328 23.9991 31.3336 23.8264L31.3917 7.99908C31.3909 7.66037 31.2568 7.33559 31.0184 7.09488C30.7801 6.85418 30.4566 6.71688 30.1178 6.71265Z" fill="#1F64FF"/>
<path d="M42.0148 17.9875L41.989 24.5712H37.8611L37.9256 6.77069L43.7305 6.79004C44.8417 6.77327 45.9499 6.91107 47.0232 7.1995C47.8309 7.41663 48.5859 7.79622 49.2419 8.31506C49.7862 8.76281 50.2088 9.34054 50.4706 9.99483C50.7338 10.664 50.8642 11.378 50.8544 12.097C50.8557 12.6506 50.7753 13.2014 50.6158 13.7316C50.4636 14.2401 50.2294 14.7204 49.9224 15.1535C49.6066 15.5957 49.2261 15.9881 48.7937 16.3174C48.3248 16.6699 47.8065 16.9513 47.2554 17.1524C47.5326 17.2937 47.7923 17.4668 48.0294 17.6683C48.2771 17.883 48.4893 18.1354 48.6582 18.4163L52.4217 24.6228H48.684C48.3868 24.6451 48.0893 24.5832 47.8257 24.444C47.5621 24.3048 47.3432 24.0941 47.1941 23.8361L44.2594 18.6613C44.1549 18.4589 43.9964 18.2893 43.8014 18.1713C43.572 18.0597 43.3177 18.0086 43.0629 18.0229L42.0148 17.9875ZM42.0148 15.1438H43.6757C44.1625 15.1561 44.6478 15.0852 45.1108 14.9342C45.4727 14.8126 45.8032 14.6122 46.0783 14.3474C46.3294 14.1007 46.5184 13.798 46.6297 13.464C46.7476 13.1117 46.8075 12.7425 46.8071 12.371C46.8264 12.028 46.7683 11.685 46.6371 11.3675C46.5059 11.05 46.305 10.766 46.0492 10.5365C45.544 10.0937 44.7571 9.87124 43.6886 9.86909H42.0277L42.0148 15.1438Z" fill="#000022"/>
<path d="M62.8513 24.6453C62.5724 24.6617 62.2937 24.6108 62.0386 24.497C61.8207 24.3516 61.66 24.1351 61.5839 23.8844L61.3162 23.188C60.9937 23.4556 60.6938 23.691 60.4003 23.8941C60.1122 24.0931 59.8067 24.2657 59.4876 24.41C59.1668 24.5555 58.8303 24.6637 58.4847 24.7324C58.0952 24.8026 57.7001 24.836 57.3044 24.8323C56.771 24.8358 56.2402 24.7575 55.7306 24.6002C55.2878 24.4624 54.879 24.2328 54.5309 23.9263C54.195 23.6241 53.9344 23.2476 53.7698 22.8269C53.5843 22.3449 53.4955 21.8311 53.5086 21.3148C53.5159 20.8299 53.6351 20.3532 53.8569 19.922C54.1349 19.3961 54.545 18.9517 55.0469 18.6323C55.7478 18.1876 56.517 17.8608 57.3237 17.6651C58.5028 17.3822 59.7138 17.2544 60.926 17.2846V16.7462C60.926 15.9982 60.7755 15.4608 60.4745 15.1341C60.3082 14.9626 60.1069 14.8289 59.8843 14.7421C59.6617 14.6553 59.423 14.6175 59.1845 14.6311C58.8126 14.6181 58.4412 14.666 58.0848 14.773C57.8215 14.8591 57.5659 14.967 57.3205 15.0954C57.0947 15.2179 56.8787 15.3276 56.6755 15.4178C56.4364 15.5203 56.1776 15.5688 55.9176 15.5597C55.6818 15.5666 55.4497 15.5002 55.2533 15.3695C55.0733 15.2485 54.925 15.0859 54.8211 14.8955L54.1407 13.709C54.8874 13.051 55.7533 12.5421 56.6916 12.2098C57.6576 11.8791 58.673 11.7155 59.694 11.7262C60.4011 11.7197 61.1029 11.8488 61.7612 12.1066C62.3498 12.3401 62.8819 12.6962 63.3221 13.1513C63.7511 13.6072 64.0806 14.1474 64.2896 14.7375C64.517 15.38 64.6263 16.0584 64.6121 16.7397L64.5831 24.6518L62.8513 24.6453ZM58.5105 22.324C58.9537 22.3349 59.3939 22.2491 59.8005 22.0725C60.2189 21.8651 60.5968 21.5844 60.9163 21.2439V19.5093C60.2897 19.4976 59.6635 19.5451 59.0458 19.6511C58.6439 19.7202 58.2533 19.8439 57.8848 20.0187C57.6425 20.1254 57.4364 20.3001 57.2915 20.5217C57.18 20.7064 57.1219 20.9185 57.1238 21.1342C57.1046 21.3043 57.1265 21.4766 57.1877 21.6364C57.2488 21.7963 57.3475 21.9392 57.4753 22.0531C57.7828 22.251 58.1454 22.3459 58.5105 22.324Z" fill="#000022"/>
<path d="M71.7166 24.8743C71.1747 24.8823 70.636 24.7916 70.1267 24.6067C69.6896 24.4472 69.2939 24.1915 68.9689 23.8587C68.6488 23.5264 68.4055 23.128 68.2562 22.6915C68.0905 22.1993 68.0098 21.6825 68.0175 21.1633L68.0433 14.6183H66.9662C66.7814 14.6211 66.6025 14.553 66.4663 14.428C66.3942 14.3553 66.3386 14.2677 66.3036 14.1714C66.2685 14.0751 66.2547 13.9724 66.2632 13.8703V12.3872L68.282 12.0035L69.0366 8.91798C69.0763 8.73384 69.1841 8.57145 69.3383 8.46327C69.4926 8.35509 69.6819 8.30907 69.8687 8.33441H71.8488V12.0357H74.9254V14.615H71.8488L71.8262 20.9053C71.8135 21.1647 71.8872 21.421 72.0358 21.634C72.1071 21.7287 72.2005 21.8044 72.308 21.8544C72.4154 21.9044 72.5335 21.9273 72.6518 21.9209C72.7693 21.9242 72.8867 21.91 73.0001 21.879C73.0853 21.8564 73.1675 21.8239 73.2452 21.7823L73.4419 21.6856C73.5093 21.6575 73.5817 21.6432 73.6548 21.6437C73.7525 21.6397 73.8489 21.668 73.9289 21.7243C74.0129 21.7961 74.0848 21.881 74.1417 21.9758L75.2834 23.7748C74.7857 24.1431 74.2266 24.4204 73.6322 24.5938C73.0111 24.7817 72.3655 24.8762 71.7166 24.8743Z" fill="#000022"/>
<path d="M82.5138 11.8584C83.2986 11.8513 84.0784 11.9845 84.8164 12.2518C85.4878 12.5014 86.098 12.8917 86.6062 13.3963C87.1206 13.9161 87.5185 14.5392 87.7737 15.2244C88.0623 16.0085 88.2023 16.8394 88.1865 17.6748C88.1862 17.9074 88.1733 18.1399 88.1478 18.3712C88.1317 18.5211 88.0845 18.6661 88.0091 18.7968C87.9498 18.8977 87.8576 18.9751 87.7479 19.016C87.6116 19.0601 87.4686 19.0798 87.3254 19.074L80.0209 19.0482C80.1413 20.1079 80.4638 20.8763 80.9884 21.3535C81.5406 21.8452 82.2618 22.1041 83.0007 22.0757C83.3851 22.0868 83.7686 22.0345 84.1359 21.921C84.429 21.8276 84.7137 21.71 84.9873 21.5695L85.671 21.2181C85.8707 21.1162 86.0918 21.0631 86.316 21.0633C86.448 21.0545 86.58 21.0794 86.6997 21.1358C86.8193 21.1923 86.9226 21.2783 86.9997 21.3857L88.0929 22.7431C87.7285 23.1761 87.3013 23.5521 86.8255 23.8587C86.3864 24.1266 85.9179 24.343 85.4291 24.5035C84.9648 24.6583 84.4862 24.7663 84.0005 24.8259C83.5482 24.8856 83.0925 24.9147 82.6363 24.913C81.7845 24.9167 80.939 24.7671 80.1402 24.4713C79.378 24.1907 78.6843 23.7511 78.1053 23.1816C77.5036 22.5767 77.0366 21.8515 76.7347 21.0537C76.383 20.1086 76.2145 19.1052 76.238 18.0971C76.2369 17.2751 76.3866 16.4599 76.6798 15.6919C76.9618 14.9459 77.3933 14.2653 77.9479 13.692C78.5024 13.1187 79.1684 12.6648 79.9048 12.3582C80.7306 12.0132 81.6189 11.843 82.5138 11.8584V11.8584ZM82.5783 14.4732C82.2683 14.4524 81.9573 14.4957 81.6649 14.6006C81.3725 14.7055 81.1048 14.8695 80.8787 15.0825C80.4295 15.5757 80.1454 16.1968 80.066 16.8591L84.7938 16.8752C84.7939 16.5782 84.7559 16.2824 84.6809 15.995C84.6068 15.7179 84.4786 15.4582 84.3036 15.2309C84.1202 14.9982 83.885 14.8117 83.6167 14.686C83.2916 14.5358 82.9362 14.463 82.5783 14.4732V14.4732Z" fill="#000022"/>
<path d="M99.4543 8.64716C99.4571 8.94033 99.3931 9.23028 99.2673 9.49511C99.1462 9.75755 98.9753 9.99405 98.7642 10.1915C98.5513 10.3899 98.3058 10.5502 98.0386 10.6655C97.7531 10.7822 97.4473 10.8414 97.1388 10.8396C96.8403 10.8395 96.545 10.778 96.2713 10.659C96.0078 10.5412 95.7666 10.3787 95.5586 10.1786C95.3533 9.98038 95.189 9.74377 95.0749 9.48221C94.9549 9.21475 94.8954 8.92411 94.9007 8.63104C94.8989 8.33346 94.9604 8.0389 95.0813 7.76697C95.1956 7.50013 95.3623 7.25893 95.5715 7.05766C95.7794 6.85834 96.022 6.6988 96.2874 6.58693C96.5615 6.47025 96.8572 6.4131 97.155 6.41928C97.7627 6.41579 98.3483 6.64676 98.79 7.0641C98.9995 7.26654 99.1681 7.50735 99.2866 7.77342C99.4064 8.04869 99.4637 8.3471 99.4543 8.64716ZM99.0061 12.1163L98.9609 24.7775H95.1748L95.22 12.1131L99.0061 12.1163Z" fill="#000022"/>
<path d="M106.456 25C105.913 25.0099 105.373 24.9192 104.863 24.7324C104.427 24.5748 104.032 24.3202 103.708 23.9879C103.385 23.6556 103.141 23.2542 102.995 22.814C102.828 22.3223 102.747 21.8052 102.757 21.2858L102.779 14.7408H101.705C101.608 14.7444 101.511 14.7272 101.421 14.6904C101.331 14.6535 101.249 14.5978 101.183 14.5269C101.116 14.4561 101.065 14.3718 101.033 14.2797C101.002 14.1876 100.99 14.0897 100.999 13.9928V12.5161L103.015 12.1324L103.773 9.04694C103.812 8.8628 103.92 8.70042 104.074 8.59224C104.229 8.48405 104.418 8.43803 104.605 8.46338H106.582V12.1647H109.658V14.744H106.578L106.556 21.0311C106.546 21.2901 106.62 21.5453 106.765 21.7597C106.837 21.8544 106.93 21.9301 107.038 21.9801C107.145 22.0302 107.263 22.053 107.381 22.0467C107.493 22.0535 107.605 22.0448 107.714 22.0209C107.798 21.9959 107.88 21.9636 107.959 21.9242C108.023 21.8887 108.088 21.8564 108.155 21.8274C108.222 21.7963 108.295 21.7819 108.368 21.7855C108.466 21.7801 108.562 21.8073 108.642 21.8629C108.727 21.934 108.799 22.019 108.855 22.1144L109.997 23.9135C109.504 24.2819 108.949 24.5593 108.359 24.7324C107.741 24.915 107.1 25.0052 106.456 25V25Z" fill="#000022"/>
<path d="M15.6184 9.81752L17.676 8.13452C17.7374 8.08179 17.7819 8.01202 17.8037 7.93404C17.8255 7.85606 17.8237 7.77337 17.7985 7.69642C17.7733 7.61946 17.7258 7.55171 17.6621 7.50171C17.5984 7.45172 17.5213 7.42173 17.4405 7.41554L14.7961 7.24466C14.7176 7.24004 14.6422 7.21297 14.5787 7.16666C14.5152 7.12036 14.4664 7.05678 14.4381 6.9835L13.4706 4.49769C13.4407 4.41977 13.3879 4.35274 13.3191 4.30547C13.2503 4.25819 13.1687 4.23288 13.0852 4.23288C13.0018 4.23288 12.9202 4.25819 12.8514 4.30547C12.7826 4.35274 12.7298 4.41977 12.6999 4.49769L11.7324 6.96738C11.7023 7.03986 11.6526 7.10246 11.5887 7.14806C11.5249 7.19366 11.4495 7.22042 11.3712 7.22531L8.70737 7.36073C8.62441 7.36473 8.54458 7.39365 8.47832 7.44373C8.41207 7.4938 8.36246 7.56269 8.33598 7.6414C8.30951 7.7201 8.3074 7.80496 8.32993 7.88489C8.35246 7.96481 8.39858 8.03608 8.46227 8.08938L10.5101 9.77883C10.5685 9.83056 10.6116 9.89722 10.6349 9.97164C10.6582 10.0461 10.6608 10.1254 10.6423 10.2012L9.96188 12.7805C9.94314 12.8609 9.94893 12.945 9.97849 13.022C10.0081 13.0991 10.0601 13.1655 10.1278 13.2127C10.1955 13.2599 10.2758 13.2857 10.3583 13.2869C10.4408 13.288 10.5218 13.2643 10.5907 13.219L12.8289 11.7971C12.8935 11.7532 12.97 11.7297 13.0482 11.7297C13.1264 11.7297 13.2028 11.7532 13.2675 11.7971L15.5056 13.2383C15.575 13.2813 15.6555 13.3027 15.7371 13.2999C15.8186 13.2971 15.8975 13.2701 15.9637 13.2225C16.03 13.1749 16.0807 13.1088 16.1093 13.0324C16.138 12.956 16.1434 12.8728 16.1248 12.7934L15.4798 10.2141C15.4656 10.1416 15.471 10.0667 15.4953 9.99702C15.5197 9.92732 15.5622 9.86537 15.6184 9.81752Z" fill="white"/>
</g>
<defs>
<clipPath id="clip0_118_12">
<rect width="110" height="25" fill="white"/>
</clipPath>
</defs>
</svg>
