<svg width="189" height="149" viewBox="0 0 189 149" fill="none" xmlns="http://www.w3.org/2000/svg">
<path d="M143.076 0.590374L10.4471 0.10498C7.81016 0.109967 5.28147 1.15441 3.40959 3.01175C1.53771 4.8691 0.473579 7.38956 0.448032 10.0264L0.00147004 133.18C-0.0276868 134.55 0.377532 135.893 1.15903 137.018C1.94052 138.143 3.05815 138.992 4.35168 139.442C5.6452 139.893 7.04818 139.922 8.35945 139.526C9.67073 139.131 10.8229 138.33 11.6509 137.238L38.1728 103.766L142.688 104.154C145.325 104.149 147.853 103.104 149.725 101.247C151.597 99.3898 152.661 96.8693 152.687 94.2325L152.978 10.5701C152.978 7.93669 151.937 5.41001 150.083 3.54067C148.228 1.67134 145.709 0.610867 143.076 0.590374Z" fill="#1F64FF"/>
<path d="M181.324 40.5286H159.967L159.792 98.2127C159.777 101.874 158.311 105.38 155.717 107.964C153.122 110.547 149.61 111.998 145.949 111.998L70.7515 111.726V112.58C70.7513 114.623 71.5562 116.584 72.9917 118.038C74.4273 119.492 76.3778 120.321 78.4207 120.347L159.21 120.599L179.693 146.655C180.335 147.473 181.216 148.072 182.213 148.367C183.21 148.662 184.275 148.639 185.259 148.302C186.243 147.965 187.097 147.33 187.704 146.485C188.31 145.64 188.639 144.627 188.644 143.587L188.993 48.2754C188.988 46.2358 188.181 44.2799 186.746 42.8304C185.311 41.3809 183.364 40.5541 181.324 40.5286Z" fill="#1F64FF"/>
<path d="M94.0313 59.2259L106.419 49.0908C106.789 48.7733 107.056 48.3531 107.187 47.8836C107.319 47.414 107.308 46.916 107.156 46.4526C107.004 45.9892 106.719 45.5812 106.335 45.2801C105.952 44.979 105.487 44.7984 105.001 44.7611L89.0803 43.7321C88.6081 43.7043 88.1538 43.5413 87.7717 43.2624C87.3895 42.9836 87.0957 42.6007 86.9252 42.1594L81.1004 27.1899C80.9203 26.7206 80.6022 26.317 80.1879 26.0323C79.7737 25.7476 79.2829 25.5952 78.7803 25.5952C78.2776 25.5952 77.7868 25.7476 77.3726 26.0323C76.9584 26.317 76.6402 26.7206 76.4601 27.1899L70.6354 42.0624C70.4546 42.4988 70.1549 42.8758 69.7705 43.1504C69.3861 43.425 68.9323 43.5862 68.4608 43.6156L52.4234 44.4311C51.9239 44.4551 51.4433 44.6293 51.0444 44.9309C50.6455 45.2324 50.3469 45.6473 50.1875 46.1213C50.0281 46.5952 50.0154 47.1063 50.151 47.5876C50.2867 48.0689 50.5644 48.498 50.9478 48.819L63.2768 58.9929C63.6282 59.3044 63.888 59.7058 64.0283 60.154C64.1686 60.6021 64.184 61.0801 64.0728 61.5363L59.9761 77.0689C59.8633 77.5529 59.8981 78.0595 60.0762 78.5235C60.2542 78.9874 60.5672 79.3873 60.9748 79.6716C61.3824 79.9559 61.8658 80.1114 62.3627 80.1182C62.8595 80.1249 63.347 79.9826 63.7622 79.7095L77.2367 71.1471C77.6262 70.8825 78.0861 70.741 78.557 70.741C79.0278 70.741 79.4878 70.8825 79.8773 71.1471L93.3518 79.826C93.7695 80.0845 94.2545 80.2135 94.7454 80.1965C95.2364 80.1796 95.7113 80.0175 96.1102 79.7308C96.5091 79.4441 96.8141 79.0456 96.9866 78.5856C97.1592 78.1257 97.1915 77.6249 97.0796 77.1466L93.1965 61.614C93.1111 61.1777 93.1435 60.7265 93.2902 60.3068C93.4369 59.8871 93.6927 59.514 94.0313 59.2259Z" fill="white"/>
</svg>
