<svg width="234" height="213" viewBox="0 0 234 213" fill="none" xmlns="http://www.w3.org/2000/svg">
<path d="M122.995 114.977H6.12811C3.85765 114.977 2 113.118 2 110.846V6.13078C2 3.85885 3.85765 2 6.12811 2H122.995C125.265 2 127.123 3.85885 127.123 6.13078V110.846C127.123 113.118 125.265 114.977 122.995 114.977Z" stroke="#1F64FF" stroke-width="3" stroke-miterlimit="10"/>
<path d="M33.25 94.8598C35.3019 94.8598 36.9653 93.1954 36.9653 91.1421C36.9653 89.0889 35.3019 87.4244 33.25 87.4244C31.1981 87.4244 29.5347 89.0889 29.5347 91.1421C29.5347 93.1954 31.1981 94.8598 33.25 94.8598Z" fill="white"/>
<path d="M89.186 94.8598C91.2379 94.8598 92.9013 93.1954 92.9013 91.1421C92.9013 89.0889 91.2379 87.4244 89.186 87.4244C87.1341 87.4244 85.4707 89.0889 85.4707 91.1421C85.4707 93.1954 87.1341 94.8598 89.186 94.8598Z" fill="white"/>
<path d="M61.3208 94.8598C63.3727 94.8598 65.0361 93.1954 65.0361 91.1421C65.0361 89.0889 63.3727 87.4244 61.3208 87.4244C59.2689 87.4244 57.6055 89.0889 57.6055 91.1421C57.6055 93.1954 59.2689 94.8598 61.3208 94.8598Z" fill="white"/>
<path d="M112.179 25.0498H16.9025C16.7374 25.0498 16.5723 24.8846 16.5723 24.6367C16.5723 24.3889 16.6961 24.2236 16.9025 24.2236H112.221C112.386 24.2236 112.551 24.3889 112.551 24.6367C112.551 24.8846 112.386 25.0498 112.179 25.0498Z" fill="white"/>
<path d="M112.179 39.0943H16.9025C16.7374 39.0943 16.5723 38.9291 16.5723 38.6813C16.5723 38.4334 16.6961 38.2682 16.9025 38.2682H112.221C112.386 38.2682 112.551 38.4334 112.551 38.6813C112.551 38.9291 112.386 39.0943 112.179 39.0943Z" fill="white"/>
<path d="M112.179 53.1389H16.9025C16.7374 53.1389 16.5723 52.9737 16.5723 52.7258C16.5723 52.478 16.6961 52.3127 16.9025 52.3127H112.221C112.386 52.3127 112.551 52.478 112.551 52.7258C112.551 52.9737 112.386 53.1389 112.179 53.1389Z" fill="white"/>
<path d="M112.179 67.1836H16.9025C16.7374 67.1836 16.5723 67.0183 16.5723 66.7705C16.5723 66.5227 16.6961 66.3574 16.9025 66.3574H112.221C112.386 66.3574 112.551 66.5227 112.551 66.7705C112.551 67.0183 112.386 67.1836 112.179 67.1836Z" fill="white"/>
<path d="M39.2358 81.2283H27.2643C26.1084 81.2283 25.2002 80.3195 25.2002 79.1629V53.9652C25.2002 52.8086 26.1084 51.8998 27.2643 51.8998H39.2358C40.3917 51.8998 41.2998 52.8086 41.2998 53.9652V79.1629C41.2998 80.2782 40.3917 81.2283 39.2358 81.2283Z" fill="#1F64FF"/>
<path d="M67.3066 81.2282H55.3351C54.1792 81.2282 53.271 80.3195 53.271 79.1629V39.9205C53.271 38.7639 54.1792 37.8551 55.3351 37.8551H67.3066C68.4625 37.8551 69.3706 38.7639 69.3706 39.9205V79.1629C69.3706 80.2782 68.4625 81.2282 67.3066 81.2282Z" fill="#1F64FF"/>
<path d="M95.1713 81.2283H83.1998C82.0439 81.2283 81.1357 80.3196 81.1357 79.1629V26.289C81.1357 25.1324 82.0439 24.2236 83.1998 24.2236H95.1713C96.3272 24.2236 97.2354 25.1324 97.2354 26.289V79.1629C97.2354 80.2783 96.3272 81.2283 95.1713 81.2283Z" fill="#1F64FF"/>
<path d="M112.179 81.6413H16.9025C16.7374 81.6413 16.5723 81.4761 16.5723 81.2283C16.5723 80.9804 16.6961 80.8152 16.9025 80.8152H112.221C112.386 80.8152 112.551 80.9804 112.551 81.2283C112.551 81.4761 112.386 81.6413 112.179 81.6413Z" fill="#C4DBF7"/>
<path d="M165.432 210.026C161.717 206.886 159.447 201.929 160.066 197.096C160.685 192.263 164.318 187.844 169.065 186.811C173.812 185.778 179.22 188.628 180.665 193.255C181.449 184.291 182.358 174.956 187.146 167.355C191.439 160.456 198.911 155.5 207.002 154.632C215.093 153.765 223.597 157.069 228.634 163.472C233.67 169.875 234.908 179.128 231.4 186.48C228.799 191.892 224.01 195.899 218.974 199.162C202.75 209.654 183.266 213.909 164.153 211.141L165.432 210.026Z" fill="#C4DBF7"/>
<path d="M220.625 157.276C213.938 162.729 207.828 168.801 202.338 175.451C193.751 185.82 186.816 197.427 181.738 209.861C181.367 210.769 182.853 211.183 183.224 210.274C191.522 190.033 204.732 172.188 221.698 158.391C222.483 157.73 221.41 156.656 220.625 157.276Z" fill="#F5F6FA"/>
<path d="M117.794 97.4622C117.505 97.4209 117.216 97.3382 116.927 97.2143C116.886 97.173 116.844 97.173 116.762 97.1317L57.1519 63.9203C56.4914 63.5485 56.1611 62.7637 56.3263 62.1027C56.4501 61.6897 56.6978 61.4005 56.9455 61.3592C57.2757 61.2766 57.606 61.2766 57.8949 61.4418L118.248 92.2987C119.61 93.0009 120.395 94.6119 120.064 95.9338C119.899 96.636 119.445 97.1317 118.785 97.3382C118.454 97.4622 118.124 97.5035 117.794 97.4622Z" fill="#000022"/>
<path d="M104.873 93.0423C106.854 94.1989 109.413 93.538 110.569 91.5552C110.693 91.3487 110.817 91.1421 110.9 90.8943L125.637 91.1834L121.55 84.6981L108.175 85.4003C105.946 84.7394 103.634 86.02 102.974 88.2093C102.396 90.1094 103.18 92.0922 104.873 93.0423Z" fill="#FFB8B8"/>
<path d="M111.271 90.6877L111.188 86.1439C111.188 85.1938 111.89 84.3677 112.881 84.2437L139.383 81.6826L161.469 74.4538C164.235 73.545 167.248 75.0734 168.156 77.841C169.065 80.6086 167.537 83.6241 164.771 84.5329C164.73 84.5329 164.689 84.5742 164.606 84.5742L140.168 91.8444L113.17 92.5466C112.344 92.5466 111.601 92.0096 111.354 91.2247C111.312 91.0182 111.271 90.853 111.271 90.6877Z" fill="#1F64FF"/>
<path d="M150.488 207.299H145.452L143.017 187.802H150.488V207.299Z" fill="#FFB8B8"/>
<path d="M151.768 212.215H135.462V212.009C135.462 208.497 138.31 205.647 141.819 205.647H151.768V212.215Z" fill="#000022"/>
<path d="M165.349 207.299H160.313L157.877 187.802H165.349V207.299Z" fill="#FFB8B8"/>
<path d="M166.629 212.215H150.323V212.009C150.323 208.497 153.172 205.647 156.681 205.647H166.629V212.215Z" fill="#000022"/>
<path d="M168.735 128.36L167.537 200.112C167.537 201.021 166.753 201.764 165.845 201.723C165.804 201.723 165.762 201.723 165.721 201.723L159.818 201.186C159.033 201.103 158.373 200.484 158.332 199.658L154.864 154.921C154.864 154.673 154.658 154.508 154.41 154.549C154.204 154.549 154.038 154.756 154.038 154.963L152.305 200.732C152.263 201.599 151.562 202.301 150.653 202.301H144.296C143.429 202.301 142.686 201.64 142.645 200.732L138.187 127.947L164.606 121.338L168.735 128.36Z" fill="#000022"/>
<path d="M149.58 61.0287C155.189 61.0287 159.735 56.4792 159.735 50.867C159.735 45.2549 155.189 40.7053 149.58 40.7053C143.971 40.7053 139.425 45.2549 139.425 50.867C139.425 56.4792 143.971 61.0287 149.58 61.0287Z" fill="#FFB8B8"/>
<path d="M137.278 130.508C136.907 130.178 136.7 129.682 136.7 129.186L136.04 80.2781C135.957 75.156 139.177 70.6121 144.007 68.9598C144.956 64.6638 149.993 64.1268 152.965 64.1681C154.451 64.2094 155.855 64.9529 156.68 66.1922L158.786 69.3729L163.45 72.0992C167.867 74.7016 170.138 79.8237 169.023 84.822L168.321 88.0853C165.803 99.6515 166.051 111.631 169.023 123.073L170.468 128.567C170.716 129.558 170.138 130.591 169.147 130.839C168.941 130.88 168.734 130.921 168.528 130.88L166.835 130.756C165.927 130.674 165.225 129.971 165.143 129.104L164.854 126.336C164.854 126.212 164.73 126.13 164.647 126.171C164.565 126.171 164.482 126.254 164.482 126.336L164.193 129.021C164.111 129.971 163.326 130.674 162.377 130.715L138.682 131.087C138.682 131.087 138.682 131.087 138.64 131.087C138.104 131.045 137.65 130.839 137.278 130.508Z" fill="#1F64FF"/>
<path d="M150.365 56.6915C150.406 58.1373 151.397 58.9634 152.635 59.7069C153.873 60.4505 155.277 60.781 156.681 61.1114C157.3 61.4419 158.043 61.194 158.373 60.6157C158.456 60.4505 158.497 60.2439 158.538 60.0374L159.818 55.1631C160.272 53.5934 160.602 52.0237 160.809 50.4127C161.098 47.3146 160.396 43.9687 158.208 41.7381C156.02 39.5075 152.305 38.6813 149.704 40.4162C146.608 36.492 132.572 45.1666 136.04 47.8929C136.659 48.3886 137.609 47.769 138.393 47.6864C139.177 47.6038 140.044 47.769 140.54 48.3886C141.2 49.1735 140.911 50.3714 141.159 51.3628C141.613 52.8086 143.182 53.6347 144.627 53.1803C144.627 53.1803 144.627 53.1803 144.668 53.1803C145.328 52.8499 145.906 52.4781 146.484 52.0237C147.103 51.6106 147.846 51.3215 148.507 51.5693C149.415 51.8998 149.704 53.0151 149.787 53.9239C149.911 54.8326 150.117 55.7827 150.365 56.6915Z" fill="#000022"/>
<path d="M225.496 212.38H68.2151C67.9674 212.38 67.8022 212.215 67.8022 211.967C67.8022 211.719 67.9674 211.554 68.2151 211.554H225.496C225.744 211.554 225.909 211.719 225.909 211.967C225.909 212.215 225.703 212.38 225.496 212.38Z" fill="#000022"/>
<path opacity="0.2" d="M148.011 83.9132L146.36 104.154L137.691 125.221L150.488 104.567L148.011 83.9132Z" fill="black"/>
<path d="M135.669 133.069C137.444 131.624 137.733 129.021 136.288 127.245C136.123 127.038 135.958 126.873 135.792 126.708L141.324 113.035L133.811 114.564L129.724 127.328C128.321 129.145 128.692 131.789 130.508 133.193C132.036 134.309 134.182 134.267 135.669 133.069Z" fill="#FFB8B8"/>
<path d="M135.256 126.997L131.004 125.469C130.095 125.138 129.6 124.147 129.848 123.238L136.866 97.5448L137.939 74.3299C138.063 71.397 140.54 69.1664 143.47 69.2903C146.401 69.4142 148.631 71.8927 148.507 74.8256C148.507 74.8669 148.507 74.9082 148.507 74.9908L146.608 100.436L137.65 125.923C137.361 126.708 136.618 127.204 135.751 127.162C135.586 127.121 135.421 127.08 135.256 126.997Z" fill="#1F64FF"/>
</svg>
