<svg width="60" height="50" viewBox="0 0 60 50" fill="none" xmlns="http://www.w3.org/2000/svg">
<path d="M17.3399 21.0086C11.5799 21.0086 6.8999 16.3133 6.8999 10.5344C6.8999 4.69533 11.5799 0 17.3399 0C23.0999 0 27.7799 4.69533 27.7799 10.4742C27.8399 16.2531 23.1599 21.0086 17.3399 21.0086Z" fill="#1F64FF"/>
<path d="M28.68 49L39.36 25.5836C39.66 24.8612 40.5 24.5602 41.22 24.9214C41.94 25.2224 42.24 26.0651 41.88 26.7875L31.74 49.0602H60C60 49.0602 56.04 30.5799 46.26 16.0725C43.5 11.7384 36.12 7.64499 31.02 13.8452C26.88 18.9017 23.88 27.0283 21.78 34.1315L21.66 34.3121L16.26 23.9583C15 21.5504 12.06 20.6474 9.72 21.9116C7.32 23.1757 6.42 26.0651 7.68 28.473L13.26 39.2482L4.86 39.1278C2.16 39.1278 0 41.2949 0 44.0037C0 46.7126 2.16 48.8796 4.86 48.8796L28.68 49Z" fill="#1F64FF"/>
</svg>
