<svg width="55" height="56" viewBox="0 0 55 56" fill="none" xmlns="http://www.w3.org/2000/svg">
<path d="M53.5154 50.8532H45.3632C45.533 50.5985 45.618 50.2588 45.7029 49.9191L48.3354 30.8972C48.4203 30.048 48.1655 29.1139 47.656 28.4346C47.0616 27.7552 46.2124 27.4155 45.3632 27.4155H9.52731C8.67812 27.4155 7.82893 27.8401 7.23449 28.4346C6.64006 29.1139 6.3853 29.9631 6.55514 30.8972L9.18763 49.9191C9.27255 50.2588 9.35747 50.5985 9.52731 50.8532H1.37507C0.865556 50.8532 0.525879 51.2778 0.525879 51.7024V55.0992C0.525879 55.5238 0.865556 55.9484 1.37507 55.9484H53.5154C53.94 55.9484 54.3646 55.5238 54.3646 55.0992V51.7024C54.3646 51.1929 53.94 50.8532 53.5154 50.8532ZM27.4453 43.5502C24.8977 43.5502 22.9445 41.9367 22.9445 39.9836C22.9445 38.0304 24.9826 36.417 27.4453 36.417C29.9079 36.417 31.946 38.0304 31.946 39.9836C31.946 41.9367 29.9079 43.5502 27.4453 43.5502Z" fill="#1F64FF"/>
<path d="M35.2579 20.5373C35.0031 20.4524 34.6634 20.5373 34.4087 20.7072C32.5405 22.4905 29.9929 23.4246 27.4453 23.4246C24.8977 23.4246 22.3502 22.4905 20.4819 20.7072C20.2272 20.5373 19.8875 20.4524 19.6327 20.5373C16.4907 21.6413 13.5186 23.4246 11.0559 25.7174H43.8347C41.372 23.4246 38.4848 21.6413 35.2579 20.5373Z" fill="#1F64FF"/>
<path d="M27.4453 20.2822C32.9326 20.2822 37.3809 15.8339 37.3809 10.3467C37.3809 4.85943 32.9326 0.411133 27.4453 0.411133C21.9581 0.411133 17.5098 4.85943 17.5098 10.3467C17.5098 15.8339 21.9581 20.2822 27.4453 20.2822Z" fill="#1F64FF"/>
</svg>
