<svg width="67" height="55" viewBox="0 0 67 55" fill="none" xmlns="http://www.w3.org/2000/svg">
<path d="M14.7146 13.4196H9.11227H3.50991C1.55246 13.4196 0 14.972 0 16.9295V29.6191C0 31.5766 1.55246 33.1291 3.50991 33.1291H4.38739V51.6236C4.38739 53.1086 5.60236 54.3235 7.08732 54.3235H11.2047C12.6897 54.3235 13.9047 53.1086 13.9047 51.6236V33.1291H14.7821C16.7396 33.1291 18.292 31.5766 18.292 29.6191V16.9295C18.2245 15.0395 16.6721 13.4196 14.7146 13.4196Z" fill="#1F64FF"/>
<path d="M6.14246 11.0572C7.01993 11.5972 8.03241 11.9347 9.11238 11.9347C10.1924 11.9347 11.2048 11.5972 12.0823 11.0572C13.5673 10.1123 14.5797 8.42481 14.5797 6.46736C14.5797 3.42994 12.1498 1 9.11238 1C6.07496 1 3.64502 3.42994 3.64502 6.46736C3.64502 8.42481 4.65749 10.1123 6.14246 11.0572Z" fill="#1F64FF"/>
<path d="M34.0869 13.4196H28.4846H22.8822C20.9248 13.4196 19.3723 14.972 19.3723 16.9295V29.6191C19.3723 31.5766 20.9248 33.1291 22.8822 33.1291H23.7597V51.6236C23.7597 53.1086 24.9747 54.3235 26.4596 54.3235H30.577C32.062 54.3235 33.277 53.1086 33.277 51.6236V33.1291H34.1544C36.1119 33.1291 37.6644 31.5766 37.6644 29.6191V16.9295C37.5969 15.0395 36.0444 13.4196 34.0869 13.4196Z" fill="#1F64FF"/>
<path d="M25.5145 11.0572C26.392 11.5972 27.4045 11.9347 28.4845 11.9347C29.5644 11.9347 30.5769 11.5972 31.4544 11.0572C32.9393 10.1123 33.9518 8.42481 33.9518 6.46736C33.9518 3.42994 31.5219 1 28.4845 1C25.447 1 23.0171 3.42994 23.0171 6.46736C23.0171 8.42481 24.0296 10.1123 25.5145 11.0572Z" fill="#1F64FF"/>
<path d="M62.5708 13.4196H56.9685H51.3661C49.4087 13.4196 47.8562 14.972 47.8562 16.9295V29.6191C47.8562 31.5766 49.4087 33.1291 51.3661 33.1291H52.2436V51.6236C52.2436 53.1086 53.4586 54.3235 54.9435 54.3235H59.0609C60.5459 54.3235 61.7609 53.1086 61.7609 51.6236V33.1291H62.6383C64.5958 33.1291 66.1482 31.5766 66.1482 29.6191V16.9295C66.0807 15.0395 64.5283 13.4196 62.5708 13.4196Z" fill="white" stroke="#1F64FF" stroke-miterlimit="10"/>
<path d="M53.9984 11.0572C54.8759 11.5972 55.8884 11.9347 56.9683 11.9347C58.0483 11.9347 59.0608 11.5972 59.9383 11.0572C61.4232 10.1123 62.4357 8.42481 62.4357 6.46736C62.4357 3.42994 60.0058 1 56.9683 1C53.9309 1 51.501 3.42994 51.501 6.46736C51.501 8.42481 52.5134 10.1123 53.9984 11.0572Z" fill="white" stroke="#1F64FF" stroke-miterlimit="10"/>
</svg>
